<?xml version="1.0" encoding="UTF-8" standalone="no"?>
<svg
   version="1.1"
   id="Layer_1"
   x="0px"
   y="0px"
   width="605.61078"
   viewBox="0 0 605.61078 331.37543"
   enable-background="new 0 0 1024 672"
   xml:space="preserve"
   sodipodi:docname="logo.svg"
   height="331.37543"
   inkscape:version="1.4.2 (ebf0e940, 2025-05-08)"
   xmlns:inkscape="http://www.inkscape.org/namespaces/inkscape"
   xmlns:sodipodi="http://sodipodi.sourceforge.net/DTD/sodipodi-0.dtd"
   xmlns:xlink="http://www.w3.org/1999/xlink"
   xmlns="http://www.w3.org/2000/svg"
   xmlns:svg="http://www.w3.org/2000/svg"><defs
   id="defs1"><clipPath
     clipPathUnits="userSpaceOnUse"
     id="clipPath3"><use
       x="0"
       y="0"
       xlink:href="#g2"
       id="use3" /></clipPath><clipPath
     clipPathUnits="userSpaceOnUse"
     id="clipPath4"><rect
       style="fill:#000000"
       id="rect4"
       width="628.07648"
       height="364.15747"
       x="210.62767"
       y="167.48706" /></clipPath><filter
     inkscape:label="Opacity"
     style="color-interpolation-filters:sRGB"
     id="filter6"
     x="0"
     y="0"
     width="1"
     height="1"><feColorMatrix
       values="1 0 0 0 0 0 1 0 0 0 0 0 1 0 0 0 0 0 5 -1 "
       result="colormatrix"
       id="feColorMatrix6" /><feComposite
       in2="colormatrix"
       operator="arithmetic"
       k2="0.198813"
       result="fbSourceGraphic"
       id="feComposite6"
       k1="0"
       k3="0"
       k4="0" /><feColorMatrix
       result="fbSourceGraphicAlpha"
       in="fbSourceGraphic"
       values="0 0 0 -1 0 0 0 0 -1 0 0 0 0 -1 0 0 0 0 1 0"
       id="feColorMatrix7" /><feColorMatrix
       id="feColorMatrix8"
       values="1 0 0 0 0 0 1 0 0 0 0 0 1 0 0 0 0 0 5 -1 "
       result="colormatrix"
       in="fbSourceGraphic" /><feComposite
       id="feComposite8"
       in2="colormatrix"
       operator="arithmetic"
       k2="0.198813"
       result="fbSourceGraphic"
       k1="0"
       k3="0"
       k4="0" /><feColorMatrix
       result="fbSourceGraphicAlpha"
       in="fbSourceGraphic"
       values="0 0 0 -1 0 0 0 0 -1 0 0 0 0 -1 0 0 0 0 1 0"
       id="feColorMatrix9" /><feColorMatrix
       id="feColorMatrix10"
       values="1 0 0 0 0 0 1 0 0 0 0 0 1 0 0 0 0 0 5 -1 "
       result="colormatrix"
       in="fbSourceGraphic" /><feComposite
       id="feComposite10"
       in2="colormatrix"
       operator="arithmetic"
       k2="0.198813"
       result="composite"
       k1="0"
       k3="0"
       k4="0" /></filter><clipPath
     clipPathUnits="userSpaceOnUse"
     id="clipPath10"><rect
       style="fill:#ffffff;filter:url(#filter6)"
       id="rect10"
       width="622.39752"
       height="360.52423"
       x="195.50816"
       y="156.94463"
       transform="matrix(1,0,0,0.96517413,15.226096,18.154147)" /></clipPath></defs><sodipodi:namedview
   id="namedview1"
   pagecolor="#ffffff"
   bordercolor="#000000"
   borderopacity="0.25"
   inkscape:showpageshadow="2"
   inkscape:pageopacity="0.0"
   inkscape:pagecheckerboard="0"
   inkscape:deskcolor="#d1d1d1"
   showborder="true"
   inkscape:zoom="1.115043"
   inkscape:cx="235.86535"
   inkscape:cy="159.63511"
   inkscape:window-width="2032"
   inkscape:window-height="1075"
   inkscape:window-x="0"
   inkscape:window-y="25"
   inkscape:window-maximized="0"
   inkscape:current-layer="Layer_1" />
<g
   id="g3"
   clip-path="url(#clipPath10)"
   transform="translate(-218.94757,-176.0453)"><g
     inkscape:label="Clip"
     id="g2"><g
       id="g1"><path
         fill="#000000"
         opacity="1"
         stroke="none"
         d="m 554.17102,506.96222 c -2.4021,0.23993 -4.39539,0.44644 -6.38861,0.44672 -103.99222,0.0144 -207.98441,0.0146 -311.97661,0.006 -11.85948,-10e-4 -16.84578,-5.09439 -16.84708,-17.20737 -0.0106,-98.8259 -0.0129,-197.65182 -0.01,-296.47772 4.3e-4,-12.53989 4.69606,-17.18054 17.14224,-17.17479 41.99686,0.0194 83.99832,0.40092 125.98932,-0.0951 47.16073,-0.55704 94.31741,-0.19316 141.47549,-0.3085 48.65259,-0.11901 97.30616,-0.16512 145.95844,0.007 37.80743,0.13336 73.3728,8.68182 104.81103,30.51356 36.289,25.20027 59.1756,59.50122 67.07526,103.14618 8.38422,46.32178 0.30554,89.56824 -27.02301,128.30313 -23.66473,33.54172 -55.68243,55.54154 -96.33191,62.64133 -32.36645,5.65301 -61.40179,-2.4975 -83.48187,-28.2417 -21.73297,-25.33963 -15.52326,-58.88989 2.15393,-78.6514 20.85327,-23.31195 63.65063,-34.37143 92.92316,-23.75824 8.50622,3.08411 15.95178,7.71231 20.34643,15.99301 6.18097,11.64655 4.90814,22.98621 -2.81702,33.29065 -11.91424,15.89221 -28.82989,23.07675 -47.91015,25.91742 -14.24549,2.12088 -28.19708,-0.22833 -42.08374,-3.17407 -2.2406,-0.47528 -4.48786,-0.91861 -7.31787,-1.49628 1.58001,8.05304 5.828,13.93567 11.51117,18.61185 15.02624,12.36383 32.33245,17.09293 51.40264,12.98196 47.79181,-10.30261 79.57306,-39.77606 95.01801,-85.2315 15.80493,-46.51496 9.38471,-90.97425 -21.55035,-130.12177 -24.01508,-30.39049 -56.26477,-47.23671 -94.75092,-50.46225 -35.71545,-2.99331 -71.60217,-0.61097 -107.40973,-1.07132 -6.97278,-0.0897 -13.94769,-0.0129 -20.97656,0.49024 4.83539,0.95842 9.70941,1.75546 14.49933,2.90349 19.62945,4.70468 37.42572,13.02804 51.9552,27.35722 16.15252,15.92985 21.88794,35.65097 18.52838,57.60092 -4.42316,28.89899 -16.26794,54.43201 -37.85266,74.80914 -6.685,6.31098 -14.10456,11.71527 -22.09796,16.24854 -2.96631,1.68228 -4.15412,3.71176 -4.13727,7.16467 0.15765,32.32953 0.11865,64.65991 0.23541,96.98972 0.0282,7.81839 -1.37567,14.66989 -10.06256,18.0502 M 523.164,401.832 c -5.82422,1.39298 -11.64783,2.78851 -17.47278,4.17834 -9.93249,2.36991 -17.22699,-1.60507 -22.68857,-9.63818 -4.04043,-5.94272 -5.89505,-12.69424 -6.08373,-19.79538 -0.1941,-7.30359 -2.04944,-14.11105 -4.96433,-20.72387 -4.85892,-11.02311 -11.69522,-20.92627 -17.67947,-31.3108 -7.11963,-12.35473 -11.8862,-25.56073 -11.21555,-39.86529 1.35721,-28.94695 14.73435,-51.15813 39.90134,-65.67175 16.79632,-9.68636 35.23794,-13.70426 54.61923,-13.52279 -3.80066,-0.14741 -7.58972,-0.14668 -11.37872,-0.14753 -90.6543,-0.0205 -181.3086,-0.021 -271.96279,-0.12528 -4.2027,-0.005 -6.23968,0.649 -6.23038,5.65793 0.1617,86.98807 0.13161,173.9765 0.15603,260.96484 0.002,6.94999 0.045,6.96308 6.77043,6.96369 91.15455,0.008 182.30909,0.0139 273.46367,0.0154 6.48931,9e-5 6.57287,-0.0173 6.58551,-6.74811 0.0422,-22.49679 0.0339,-44.99374 -0.007,-67.49054 -0.003,-1.76013 0.41192,-3.66546 -0.93793,-5.3678 -3.53046,0.0291 -6.69409,1.75266 -10.87494,2.62717 M 599.5494,293.05547 c 0.0733,-0.99609 0.0401,-2.01373 0.23608,-2.98508 2.74756,-13.61984 -1.58209,-24.88342 -11.42761,-34.28222 -11.72113,-11.18924 -26.05774,-17.21326 -41.69824,-20.03406 -26.29248,-4.74185 -49.05039,1.79439 -65.7894,23.47424 -9.74762,12.62485 -12.55676,26.9213 -6.12161,42.27426 2.1362,5.09659 4.91705,9.80866 7.79293,14.4856 9.78638,15.91504 19.13047,32.00619 22.52942,50.78018 0.51581,2.84903 -1.30746,6.67065 1.55951,8.38193 2.79743,1.66977 6.07376,-0.64057 9.09397,-1.33731 16.48992,-3.80426 32.30975,-9.31293 46.22265,-19.2652 20.93097,-14.9725 31.38953,-36.46591 37.6023,-61.49234 m 102.21014,112.26767 c 3.43433,-4.59723 3.38568,-5.09821 -1.52631,-7.66452 -1.89355,-0.98929 -3.92944,-1.90881 -6.00689,-2.31165 -19.09882,-3.70324 -36.11926,1.24634 -51.43305,12.77784 -1.453,1.09414 -3.50116,1.98098 -3.72332,4.49395 4.41467,2.13926 9.15454,2.86692 13.85974,3.69062 17.5354,3.06985 34.0639,1.45391 48.82983,-10.98624 z"
         id="path1" /></g></g></g>
</svg>
